<?xml version="1.0" encoding="UTF-8" standalone="no"?>
<!-- Created with Inkscape (http://www.inkscape.org/) -->

<svg
   width="30mm"
   height="30mm"
   viewBox="0 0 30 30"
   version="1.1"
   id="svg1"
   xml:space="preserve"
   inkscape:version="1.3.2 (091e20e, 2023-11-25, custom)"
   sodipodi:docname="google.svg"
   xmlns:inkscape="http://www.inkscape.org/namespaces/inkscape"
   xmlns:sodipodi="http://sodipodi.sourceforge.net/DTD/sodipodi-0.dtd"
   xmlns="http://www.w3.org/2000/svg"
   xmlns:svg="http://www.w3.org/2000/svg"><sodipodi:namedview
     id="namedview1"
     pagecolor="#ffffff"
     bordercolor="#000000"
     borderopacity="0.25"
     inkscape:showpageshadow="2"
     inkscape:pageopacity="0.0"
     inkscape:pagecheckerboard="0"
     inkscape:deskcolor="#d1d1d1"
     inkscape:document-units="mm"
     showgrid="false"
     inkscape:zoom="2.8284273"
     inkscape:cx="92.100654"
     inkscape:cy="89.62578"
     inkscape:window-width="1920"
     inkscape:window-height="986"
     inkscape:window-x="-11"
     inkscape:window-y="-11"
     inkscape:window-maximized="1"
     inkscape:current-layer="layer7" /><defs
     id="defs1" /><g
     inkscape:groupmode="layer"
     id="layer6"
     inkscape:label="facebook" /><g
     inkscape:groupmode="layer"
     id="layer7"
     inkscape:label="google"><g
       id="g1"><ellipse
         style="fill:#020873;fill-opacity:1;stroke:#ffffff;stroke-width:0.846;stroke-linejoin:bevel;stroke-opacity:1;stroke-dasharray:none"
         id="path3"
         cx="15.002736"
         cy="14.751919"
         rx="12.033426"
         ry="12.121214" /><ellipse
         style="fill:#ffffff;fill-opacity:1;stroke:#ffffff;stroke-width:0.115509;stroke-linejoin:bevel;stroke-opacity:1"
         id="path3-6"
         cx="15.02053"
         cy="14.740754"
         rx="9.5374746"
         ry="9.6084108" /><path
         style="fill:#020873;fill-opacity:1;stroke:#020873;stroke-width:0.131901;stroke-linejoin:bevel;stroke-opacity:1"
         d="M 18.119083,11.180643 20.266859,9.0242799 C 17.013098,6.2485303 11.656086,5.8460562 8.2497061,11.253468 c -1.267424,2.91822 -0.7120035,5.005988 0.00312,7.020998 3.7772599,6.004693 9.1667529,4.639712 12.0095739,2.402289 1.670604,-1.825662 2.61752,-4.132134 2.142474,-7.383338 l -7.23119,-0.02408 -0.01575,3.056093 4.187473,-0.01356 c -0.698517,2.540707 -2.444972,3.530139 -5.14312,3.110765 -1.90324,-0.425613 -2.831778,-1.645782 -3.449235,-3.119537 -0.430283,-1.068208 -0.367837,-2.093961 -0.0095,-3.094215 1.570948,-3.7295721 5.876459,-4.0585098 7.375481,-2.028242 z"
         id="path4"
         sodipodi:nodetypes="ccccccccccccc" /></g></g></svg>
