<?xml version="1.0" encoding="UTF-8" standalone="no"?>
<!-- Created with Inkscape (http://www.inkscape.org/) -->

<svg
   width="78mm"
   height="77mm"
   viewBox="0 0 78 77"
   version="1.1"
   id="svg1"
   xml:space="preserve"
   inkscape:version="1.3.2 (091e20e, 2023-11-25, custom)"
   sodipodi:docname="login.svg"
   xmlns:inkscape="http://www.inkscape.org/namespaces/inkscape"
   xmlns:sodipodi="http://sodipodi.sourceforge.net/DTD/sodipodi-0.dtd"
   xmlns="http://www.w3.org/2000/svg"
   xmlns:svg="http://www.w3.org/2000/svg"><sodipodi:namedview
     id="namedview1"
     pagecolor="#ffffff"
     bordercolor="#000000"
     borderopacity="0.25"
     inkscape:showpageshadow="2"
     inkscape:pageopacity="0.0"
     inkscape:pagecheckerboard="0"
     inkscape:deskcolor="#d1d1d1"
     inkscape:document-units="mm"
     showgrid="false"
     inkscape:zoom="0.94615212"
     inkscape:cx="415.89507"
     inkscape:cy="327.11442"
     inkscape:window-width="1920"
     inkscape:window-height="986"
     inkscape:window-x="-11"
     inkscape:window-y="-11"
     inkscape:window-maximized="1"
     inkscape:current-layer="layer5" /><defs
     id="defs1" /><g
     inkscape:groupmode="layer"
     id="layer5"
     inkscape:label="boneco"><g
       id="g3"
       transform="translate(-2.7964143,-0.55928286)"><ellipse
         style="opacity:1;fill:#020873;fill-opacity:1;stroke:#ffffff;stroke-width:0.845;stroke-linejoin:bevel;stroke-opacity:1;stroke-dasharray:none"
         id="path1"
         cx="40.903496"
         cy="39.4604"
         rx="34.656227"
         ry="35.654835" /><path
         id="path2"
         style="opacity:1;fill:#ffffff;fill-opacity:1;stroke:#ffffff;stroke-width:0.288259;stroke-linejoin:bevel;stroke-opacity:1"
         d="m 40.729297,15.691549 a 14.467343,14.86148 0 0 0 -14.467334,14.861108 14.467343,14.86148 0 0 0 6.905522,12.648324 l -0.343132,0.0047 c -8.553063,2.30981 -12.899256,8.65071 -15.141195,17.008731 11.92663,15.15268 31.385968,15.937672 46.127417,-0.109037 C 61.72244,52.329 57.051443,46.405584 48.902441,42.977222 l -0.254764,0.0036 A 14.467343,14.86148 0 0 0 55.196631,30.552657 14.467343,14.86148 0 0 0 40.729297,15.691549 Z" /></g></g></svg>
