<?xml version="1.0" encoding="UTF-8" standalone="no"?>
<!-- Created with Inkscape (http://www.inkscape.org/) -->

<svg
   width="90mm"
   height="90mm"
   viewBox="0 0 90 90"
   version="1.1"
   id="svg1"
   xml:space="preserve"
   inkscape:version="1.3.2 (091e20e, 2023-11-25, custom)"
   sodipodi:docname="logoNetGames.svg"
   inkscape:export-filename="logoNetGames.png"
   inkscape:export-xdpi="96"
   inkscape:export-ydpi="96"
   xmlns:inkscape="http://www.inkscape.org/namespaces/inkscape"
   xmlns:sodipodi="http://sodipodi.sourceforge.net/DTD/sodipodi-0.dtd"
   xmlns="http://www.w3.org/2000/svg"
   xmlns:svg="http://www.w3.org/2000/svg"><sodipodi:namedview
     id="namedview1"
     pagecolor="#ffffff"
     bordercolor="#000000"
     borderopacity="0.25"
     inkscape:showpageshadow="2"
     inkscape:pageopacity="0.0"
     inkscape:pagecheckerboard="0"
     inkscape:deskcolor="#d1d1d1"
     inkscape:document-units="mm"
     inkscape:zoom="1.4142136"
     inkscape:cx="173.24116"
     inkscape:cy="176.42314"
     inkscape:window-width="1920"
     inkscape:window-height="986"
     inkscape:window-x="-11"
     inkscape:window-y="-11"
     inkscape:window-maximized="1"
     inkscape:current-layer="layer2"
     inkscape:export-bgcolor="#6a676b00"
     showgrid="false" /><defs
     id="defs1"><filter
       style="color-interpolation-filters:sRGB;"
       inkscape:label="Drop Shadow"
       id="filter25"
       x="-0.058964617"
       y="-0.089199596"
       width="1.162751"
       height="1.2461961"><feFlood
         result="flood"
         in="SourceGraphic"
         flood-opacity="0.498039"
         flood-color="rgb(0,0,0)"
         id="feFlood24" /><feGaussianBlur
         result="blur"
         in="SourceGraphic"
         stdDeviation="1.900000"
         id="feGaussianBlur24" /><feOffset
         result="offset"
         in="blur"
         dx="3.500000"
         dy="3.500000"
         id="feOffset24" /><feComposite
         result="comp1"
         operator="in"
         in="flood"
         in2="offset"
         id="feComposite24" /><feComposite
         result="comp2"
         operator="over"
         in="SourceGraphic"
         in2="comp1"
         id="feComposite25" /></filter><filter
       style="color-interpolation-filters:sRGB;"
       inkscape:label="Drop Shadow"
       id="filter104"
       x="-0.031914723"
       y="-0.22584961"
       width="1.0764091"
       height="1.540721"><feFlood
         result="flood"
         in="SourceGraphic"
         flood-opacity="0.498039"
         flood-color="rgb(0,0,0)"
         id="feFlood103" /><feGaussianBlur
         result="blur"
         in="SourceGraphic"
         stdDeviation="1.000000"
         id="feGaussianBlur103" /><feOffset
         result="offset"
         in="blur"
         dx="1.000000"
         dy="1.000000"
         id="feOffset103" /><feComposite
         result="comp1"
         operator="in"
         in="flood"
         in2="offset"
         id="feComposite103" /><feComposite
         result="comp2"
         operator="over"
         in="SourceGraphic"
         in2="comp1"
         id="feComposite104" /></filter><filter
       style="color-interpolation-filters:sRGB;"
       inkscape:label="Drop Shadow"
       id="filter106"
       x="-0.024192752"
       y="-0.37782734"
       width="1.0582058"
       height="1.9090212"><feFlood
         result="flood"
         in="SourceGraphic"
         flood-opacity="0.498039"
         flood-color="rgb(0,0,0)"
         id="feFlood104" /><feGaussianBlur
         result="blur"
         in="SourceGraphic"
         stdDeviation="1.000000"
         id="feGaussianBlur104" /><feOffset
         result="offset"
         in="blur"
         dx="1.000000"
         dy="1.000000"
         id="feOffset104" /><feComposite
         result="comp1"
         operator="in"
         in="flood"
         in2="offset"
         id="feComposite105" /><feComposite
         result="comp2"
         operator="over"
         in="SourceGraphic"
         in2="comp1"
         id="feComposite106" /></filter></defs><g
     inkscape:groupmode="layer"
     id="layer2"
     inkscape:label="controle"
     style="opacity:1"><g
       id="g1"
       style="filter:url(#filter25)"><path
         style="fill:#020873;fill-opacity:1;stroke:#020873;stroke-width:0.0859999;stroke-linejoin:bevel;stroke-dasharray:none;stroke-opacity:1"
         d="m 11.473012,58.010043 c -2.974789,-0.75519 -5.241331,-3.11493 -6.006582,-6.25357 -0.249552,-1.02353 -0.262378,-3.24198 -0.04148,-7.17418 0.764716,-13.61259 2.785437,-23.57532 6.150958,-30.32595 1.221351,-2.44981 3.249049,-5.31518 3.831648,-5.41456 0.255394,-0.0436 0.361677,-0.20685 0.782968,-1.20284 0.117017,-0.27665 0.401603,-0.61368 0.641879,-0.76018 0.399537,-0.2436 0.670695,-0.26322 3.643979,-0.26368 3.468794,-5.3e-4 3.774909,0.0491 4.385739,0.71145 0.189077,0.20501 0.352922,0.58071 0.396875,0.91001 l 0.07486,0.56086 2.526316,0.0359 2.526318,0.0358 0.07365,7.20674 0.07365,7.20674 0.330928,0.56261 c 0.41856,0.7116 0.824339,1.09069 1.44507,1.35005 0.4295,0.17946 1.904875,0.20475 11.942788,0.20475 11.018518,0 11.471357,-0.01 11.943572,-0.25299 0.269952,-0.13914 0.681281,-0.45168 0.914067,-0.69453 0.852606,-0.88947 0.833527,-0.69284 0.833527,-8.58936 v -7.16412 l 2.562596,0.0961 2.562595,0.0961 0.09466,-0.6312 c 0.05206,-0.34717 0.190981,-0.77822 0.308716,-0.95791 0.407606,-0.62209 0.822018,-0.68794 4.289845,-0.68167 4.123198,0.007 4.231614,0.0397 4.730369,1.40726 0.135417,0.37131 0.397156,0.69949 0.79611,0.9982 1.614983,1.20919 3.222781,4.15901 4.842616,8.88471 3.083198,8.99491 5.205107,21.7184 5.211217,31.24771 0.002,3.2741 -0.56525,4.86826 -2.374243,6.67121 -3.548806,3.53697 -9.023361,3.09405 -12.124669,-0.98094 -0.605189,-0.79519 -1.054878,-1.78084 -3.500681,-7.67292 -1.543463,-3.71828 -2.975896,-7.13954 -3.183189,-7.60278 l -0.376893,-0.84227 -0.799177,0.73989 c -0.927949,0.85912 -1.6481,1.3072 -2.661028,1.6557 -2.227041,0.76621 -4.107606,0.33016 -5.918293,-1.37229 l -0.876691,-0.82429 -7.39733,0.0672 -7.397329,0.0671 -0.720026,0.70862 c -2.09363,2.06044 -4.891625,2.33035 -7.348149,0.70884 -0.522316,-0.34477 -1.154821,-0.84302 -1.405567,-1.10723 -0.250743,-0.2642 -0.519372,-0.48037 -0.596948,-0.48037 -0.109918,0 -2.942439,7.01297 -5.29277,13.10425 -0.507822,1.3161 -1.277524,2.52624 -2.258763,3.55127 -1.667785,1.7422 -3.321696,2.51803 -5.550826,2.60381 -0.883322,0.034 -1.576777,-0.0136 -2.086883,-0.14304 z m 46.976985,-19.30311 c 1.487929,-0.75399 2.315972,-2.08934 2.315972,-3.73486 0,-2.32701 -1.819796,-4.14811 -4.145137,-4.14811 -1.635784,0 -2.992245,0.84893 -3.720661,2.32855 -1.12531,2.28584 -0.04124,4.90459 2.398456,5.79386 0.859827,0.31341 2.272122,0.2061 3.15137,-0.23944 z M 33.96033,38.489393 c 3.069154,-1.4967 3.054943,-5.89323 -0.02394,-7.40896 -1.630162,-0.80252 -3.569497,-0.48349 -4.80599,0.79064 -2.258274,2.32699 -1.207172,6.09244 1.948799,6.98136 0.859766,0.24216 1.911983,0.10957 2.881138,-0.36304 z m 8.251889,-8.82507 c 0.527153,-0.59049 0.526788,-1.23316 -0.0011,-1.76095 -0.386472,-0.38657 -0.38716,-0.3867 -2.056993,-0.3867 -1.934057,0 -2.343888,0.13449 -2.578791,0.84625 -0.118687,0.35962 -0.110135,0.54897 0.04115,0.91105 0.342541,0.81982 0.597869,0.90747 2.512137,0.86238 l 1.6979,-0.04 z m 8.061261,0.29837 c 0.809943,-0.41883 0.94864,-1.47411 0.273077,-2.07773 -0.406297,-0.36302 -0.436904,-0.36829 -2.140072,-0.36829 h -1.727883 l -0.40319,0.40319 c -0.363792,0.36379 -0.396388,0.46355 -0.333568,1.02089 0.05081,0.45076 0.164523,0.69933 0.420745,0.91973 0.323424,0.2782 0.476287,0.30202 1.937814,0.30202 1.156483,0 1.691455,-0.0542 1.973077,-0.19981 z m 19.737774,-0.99664 c 0.658082,-0.18276 1.278088,-0.72532 1.574456,-1.37776 0.833448,-1.83484 -0.834401,-3.8695 -2.771966,-3.38162 -1.210169,0.30473 -1.874162,1.14933 -1.874162,2.38396 0,1.13328 0.592248,1.97562 1.653645,2.35194 0.519711,0.18426 0.821151,0.18925 1.418027,0.0235 z m -47.815515,-2.8178 0.03689,-1.83144 -0.830638,-0.97081 c -0.456851,-0.53395 -0.895284,-0.97484 -0.974297,-0.97976 -0.07901,-0.005 -0.54038,0.40198 -1.02526,0.90423 l -0.8816,0.91318 v 1.93483 1.93482 l 1.819011,-0.0368 1.81901,-0.0368 z m 53.433407,-2.74104 c 0.456224,-0.17237 1.059686,-0.72906 1.310267,-1.20871 0.242565,-0.46431 0.239657,-1.73617 -0.0051,-2.20939 -0.924513,-1.78781 -3.562625,-1.7563 -4.438499,0.053 -0.777788,1.60669 0.370189,3.48324 2.141098,3.49994 0.340876,0.003 0.78736,-0.0575 0.992187,-0.13486 z m -10.287642,-0.4319 c 1.235723,-0.81777 1.44626,-2.62543 0.432109,-3.71009 -0.470434,-0.50314 -1.066834,-0.74443 -1.839418,-0.74418 -2.693426,8e-4 -3.336546,3.69779 -0.827119,4.7546 0.562547,0.23691 1.641806,0.0918 2.234428,-0.30033 z m -47.055503,-0.71369 c 0.492959,-0.48918 0.89629,-0.95984 0.89629,-1.04592 0,-0.0861 -0.401836,-0.57554 -0.892969,-1.08769 l -0.892969,-0.93119 -1.852083,-0.0403 -1.852084,-0.0403 -0.03698,1.84571 c -0.02035,1.01514 -0.0073,1.92299 0.02892,2.01745 0.0496,0.12927 0.515903,0.17173 1.885744,0.17173 h 1.819841 z m 8.600768,0.7902 c 0.02596,-0.0546 0.02379,-0.98181 -0.0048,-2.06053 l -0.05199,-1.96132 -1.780233,0.0431 -1.780231,0.0431 -0.928872,0.95345 c -0.667282,0.68493 -0.898187,1.00739 -0.819912,1.14498 0.05993,0.10534 0.480972,0.58414 0.935651,1.06399 l 0.826688,0.87247 h 1.778265 c 0.978045,0 1.799494,-0.0446 1.825442,-0.0992 z m -5.534194,-4.0588 0.8798,-0.98302 -0.03676,-1.89432 -0.03676,-1.89432 H 20.30677 18.454686 l -0.03663,1.87305 -0.03663,1.87305 0.886389,1.00429 c 0.487513,0.55236 0.958069,1.00429 1.045675,1.00429 0.08761,0 0.555199,-0.44236 1.039088,-0.98302 z m 49.488129,-1.71886 c 1.776711,-1.35516 0.978408,-4.19734 -1.238779,-4.41039 -1.286261,-0.12359 -2.492158,0.79919 -2.628818,2.01162 -0.09822,0.87144 0.06223,1.47797 0.532778,2.01389 0.578871,0.65929 1.061188,0.84966 2.030577,0.80146 0.649769,-0.0323 0.908984,-0.1151 1.304242,-0.41658 z"
         id="path15" /><path
         style="fill:#020873;fill-opacity:1;stroke:#020873;stroke-width:0.0859999;stroke-linejoin:bevel;stroke-dasharray:none;stroke-opacity:1"
         d="m 32.684208,23.525053 c -0.558366,-0.20655 -0.565912,-0.33217 -0.464233,-7.72991 l 0.09709,-7.06389 h 11.953447 11.953446 v 7.18939 c 0,6.68056 -0.01638,7.20394 -0.231511,7.3949 -0.204586,0.1816 -1.558575,0.21123 -11.642148,0.25476 -6.27585,0.0271 -11.525591,0.007 -11.66609,-0.0452 z"
         id="path16" /></g><text
       xml:space="preserve"
       style="opacity:1;font-size:15.1752px;font-family:'Times New Roman';-inkscape-font-specification:'Times New Roman, ';letter-spacing:0.897868px;fill:#020873;fill-opacity:1;stroke:#020873;stroke-width:0.27403;stroke-linejoin:bevel;stroke-dasharray:none;stroke-opacity:1;filter:url(#filter104)"
       x="5.1043816"
       y="71.875954"
       id="text27"><tspan
         sodipodi:role="line"
         id="tspan27"
         style="font-style:normal;font-variant:normal;font-weight:bold;font-stretch:normal;font-family:Arial;-inkscape-font-specification:'Arial Bold';fill:#020873;stroke:#020873;stroke-width:0.27403;stroke-opacity:1;fill-opacity:1"
         x="5.1043816"
         y="71.875954">NetGames</tspan></text><text
       xml:space="preserve"
       style="font-size:7.03934px;font-family:'Times New Roman';-inkscape-font-specification:'Times New Roman, ';letter-spacing:0.416495px;fill:#020873;fill-opacity:1;stroke:#020873;stroke-width:0.127115;stroke-linejoin:bevel;stroke-dasharray:none;stroke-opacity:1;filter:url(#filter106)"
       x="8.0761385"
       y="62.765991"
       id="text27-1"
       transform="scale(0.77590648,1.2888151)"><tspan
         sodipodi:role="line"
         id="tspan27-6"
         style="font-style:normal;font-variant:normal;font-weight:bold;font-stretch:normal;font-family:Arial;-inkscape-font-specification:'Arial Bold';fill:#020873;stroke:#020873;stroke-width:0.127115;fill-opacity:1;stroke-opacity:1"
         x="8.0761385"
         y="62.765991">Explore o mundo dos jogos</tspan></text></g></svg>
