<?xml version="1.0" encoding="UTF-8" standalone="no"?>
<!-- Created with Inkscape (http://www.inkscape.org/) -->

<svg
   width="80mm"
   height="80mm"
   viewBox="0 0 80 80"
   version="1.1"
   id="svg1"
   xml:space="preserve"
   inkscape:version="1.3.2 (091e20e, 2023-11-25, custom)"
   sodipodi:docname="novaLogoV4.svg"
   inkscape:export-filename="novaLogoV3.png"
   inkscape:export-xdpi="96"
   inkscape:export-ydpi="96"
   xmlns:inkscape="http://www.inkscape.org/namespaces/inkscape"
   xmlns:sodipodi="http://sodipodi.sourceforge.net/DTD/sodipodi-0.dtd"
   xmlns="http://www.w3.org/2000/svg"
   xmlns:svg="http://www.w3.org/2000/svg"><sodipodi:namedview
     id="namedview1"
     pagecolor="#ffffff"
     bordercolor="#000000"
     borderopacity="0.25"
     inkscape:showpageshadow="2"
     inkscape:pageopacity="0.0"
     inkscape:pagecheckerboard="0"
     inkscape:deskcolor="#d1d1d1"
     inkscape:document-units="mm"
     showgrid="false"
     inkscape:zoom="1.3380612"
     inkscape:cx="194.68467"
     inkscape:cy="161.05392"
     inkscape:window-width="1920"
     inkscape:window-height="986"
     inkscape:window-x="-11"
     inkscape:window-y="-11"
     inkscape:window-maximized="1"
     inkscape:current-layer="layer2" /><defs
     id="defs1" /><g
     inkscape:groupmode="layer"
     id="layer2"
     inkscape:label="logo"
     style="opacity:1"><g
       id="g5"><ellipse
         style="opacity:1;fill:#020873;fill-opacity:1;stroke:#020873;stroke-width:0.657951;stroke-linejoin:round;stroke-opacity:1"
         id="path1"
         cx="39.68021"
         cy="40.167175"
         rx="37.296688"
         ry="37.381214" /><path
         style="opacity:1;fill:#ffffff;fill-opacity:1;stroke:#ffffff;stroke-width:0.172;stroke-linejoin:round;stroke-opacity:1"
         d="m 13.213057,54.949539 4.701472,2.796416 0.128913,-28.233804 c -0.01942,-1.654164 0.65735,-1.886918 1.75491,-1.26057 L 63.985455,53.533856 64.09032,26.041608 59.249028,22.895642 59.231548,45.162091 20.589298,22.863266 c -0.728062,-0.513666 -1.539222,-0.653394 -2.545856,0.08651 l -4.807465,3.00312 z"
         id="path3"
         sodipodi:nodetypes="cccccccccccc" /><path
         style="opacity:1;fill:#ffffff;fill-opacity:1;stroke:#ffffff;stroke-width:0.172;stroke-linejoin:round;stroke-opacity:1"
         d="m 20.663448,32.008572 -0.03989,26.252971 c -0.04385,0.841228 0.236433,1.439352 0.751534,1.861365 l 16.157739,9.165146 c 0.700525,0.454683 1.493321,0.376248 2.34194,-0.02472 l 22.857087,-13.19272 m 0,0 -23.876665,-13.643808 0.01497,5.444311 12.181876,7.270678 c 0.661528,0.57676 0.608231,1.153521 -0.03496,1.730281 l -11.692262,6.774312 c -0.443708,0.459157 -0.958385,0.457015 -1.533899,0.05943 L 26.150633,57.10873 C 25.741089,56.78386 25.52028,56.396078 25.66865,55.885236 l 0.110794,-21.104833 -5.115996,-2.771831"
         id="path4"
         sodipodi:nodetypes="ccccccccccccccccc" /><path
         style="opacity:1;fill:#ffffff;fill-opacity:1;stroke:#ffffff;stroke-width:0.172;stroke-linejoin:round;stroke-opacity:1"
         d="m 22.245339,20.539863 4.59737,2.817743 11.691163,-6.475865 11.969228,6.698319 c 0.706416,0.450009 0.986762,1.013636 0.994861,1.649863 l -0.07889,11.857522 4.9112,2.551728 -0.04956,-17.616287 C 56.19933,21.169022 55.749157,20.914445 55.304386,20.65109 L 38.590517,11.150702 Z"
         id="path5"
         sodipodi:nodetypes="ccccccccccc" /></g></g></svg>
