<?xml version="1.0" encoding="UTF-8" standalone="no"?>
<!-- Created with Inkscape (http://www.inkscape.org/) -->

<svg
   width="80mm"
   height="80mm"
   viewBox="0 0 80 80"
   version="1.1"
   id="svg1"
   xml:space="preserve"
   inkscape:version="1.3.2 (091e20e, 2023-11-25, custom)"
   sodipodi:docname="novaLogo.svg"
   inkscape:export-filename="novaLogo.png"
   inkscape:export-xdpi="96"
   inkscape:export-ydpi="96"
   xmlns:inkscape="http://www.inkscape.org/namespaces/inkscape"
   xmlns:sodipodi="http://sodipodi.sourceforge.net/DTD/sodipodi-0.dtd"
   xmlns="http://www.w3.org/2000/svg"
   xmlns:svg="http://www.w3.org/2000/svg"><sodipodi:namedview
     id="namedview1"
     pagecolor="#ffffff"
     bordercolor="#000000"
     borderopacity="0.25"
     inkscape:showpageshadow="2"
     inkscape:pageopacity="0.0"
     inkscape:pagecheckerboard="0"
     inkscape:deskcolor="#d1d1d1"
     inkscape:document-units="mm"
     showgrid="false"
     inkscape:zoom="1.8923042"
     inkscape:cx="125.50836"
     inkscape:cy="117.58151"
     inkscape:window-width="1920"
     inkscape:window-height="986"
     inkscape:window-x="-11"
     inkscape:window-y="-11"
     inkscape:window-maximized="1"
     inkscape:current-layer="layer2" /><defs
     id="defs1" /><g
     inkscape:groupmode="layer"
     id="layer2"
     inkscape:label="logo"
     style="opacity:1"><g
       id="g3"
       transform="matrix(1.9343655,0,0,1.9343655,-10.268787,-4.4594398)"><ellipse
         style="fill:#020873;fill-opacity:1;stroke:#020873;stroke-width:0.340138;stroke-linejoin:round;stroke-opacity:1"
         id="path1"
         cx="25.866833"
         cy="23.070415"
         rx="19.281097"
         ry="19.324793" /><path
         id="path1-7"
         style="display:inline;opacity:1;fill:#000000;fill-opacity:1;stroke:#000000;stroke-width:0.302847;stroke-linejoin:round;stroke-opacity:1"
         inkscape:label="path2"
         d="M 25.866638,5.9081665 C 16.361262,5.9083518 8.6557467,13.592119 8.6558024,23.070426 c -5.59e-5,9.478307 7.7054596,17.162075 17.2108356,17.16226 9.505578,10e-5 17.211409,-7.683751 17.211353,-17.16226 5.6e-5,-9.478508 -7.705775,-17.1623592 -17.211353,-17.1622595 z m -14.34739,4.2287885 c -0.468745,0.568927 -0.95166,1.069359 -1.398225,1.745487 l 1.459149,1.650065 1.309997,-1.767334 z"
         sodipodi:nodetypes="cccccccccc" /><path
         style="fill:#020873;fill-opacity:1;stroke:#020873;stroke-width:0.172;stroke-linejoin:round;stroke-opacity:1"
         d="m 11.613858,9.9622259 10.07583,13.7199071 c -3.147984,8.868759 6.933837,16.464912 15.818426,9.15446 l -0.03708,-6.35228 -8.280205,-0.08651 0.03708,1.767269 6.302842,-0.02472 0.02472,3.287369 c -1.718291,2.98075 -7.716999,4.195783 -11.036163,-0.568492 -0.939835,-1.626236 -1.592802,-3.111873 -1.112267,-4.634445 l 1.495381,1.903212 2.113307,0.06179 -0.06179,-8.342 c 4.464263,-1.919151 6.558002,0.0138 8.861058,1.606608 l 1.569532,-0.926889 c -2.609244,-2.803643 -5.69393,-4.49741 -10.294649,-2.669441 l -0.06179,-7.822944 -2.298687,0.03708 0.08651,14.212296 -11.048519,-14.719 z"
         id="path2"
         sodipodi:nodetypes="ccccccccccccccccccccc" /><path
         style="fill:#020873;fill-opacity:1;stroke:#020873;stroke-width:0.172;stroke-linejoin:round;stroke-opacity:1"
         d="m 12.061917,14.014564 2.100949,2.941328 -0.09887,11.246255 -2.125664,-0.09887 z"
         id="path3" /></g></g></svg>
