<?xml version="1.0" encoding="UTF-8" standalone="no"?>
<!-- Created with Inkscape (http://www.inkscape.org/) -->

<svg
   width="80mm"
   height="80mm"
   viewBox="0 0 80 80"
   version="1.1"
   id="svg1"
   xml:space="preserve"
   inkscape:version="1.3.2 (091e20e, 2023-11-25, custom)"
   sodipodi:docname="novaLogoV3.svg"
   inkscape:export-filename="novaLogoV3.png"
   inkscape:export-xdpi="96"
   inkscape:export-ydpi="96"
   xmlns:inkscape="http://www.inkscape.org/namespaces/inkscape"
   xmlns:sodipodi="http://sodipodi.sourceforge.net/DTD/sodipodi-0.dtd"
   xmlns="http://www.w3.org/2000/svg"
   xmlns:svg="http://www.w3.org/2000/svg"><sodipodi:namedview
     id="namedview1"
     pagecolor="#ffffff"
     bordercolor="#000000"
     borderopacity="0.25"
     inkscape:showpageshadow="2"
     inkscape:pageopacity="0.0"
     inkscape:pagecheckerboard="0"
     inkscape:deskcolor="#d1d1d1"
     inkscape:document-units="mm"
     showgrid="false"
     inkscape:zoom="1.3380612"
     inkscape:cx="134.14932"
     inkscape:cy="209.63167"
     inkscape:window-width="1920"
     inkscape:window-height="986"
     inkscape:window-x="-11"
     inkscape:window-y="-11"
     inkscape:window-maximized="1"
     inkscape:current-layer="layer2" /><defs
     id="defs1" /><g
     inkscape:groupmode="layer"
     id="layer2"
     inkscape:label="logo"
     style="opacity:1"><g
       id="g3"><ellipse
         style="fill:#020873;fill-opacity:1;stroke:#020873;stroke-width:0.657951;stroke-linejoin:round;stroke-opacity:1"
         id="path1"
         cx="39.76712"
         cy="40.167175"
         rx="37.296688"
         ry="37.381214" /><path
         style="fill:#ffffff;fill-opacity:1;stroke:#ffffff;stroke-width:0.332711;stroke-linejoin:round;stroke-opacity:1"
         d="m 15.52885,19.088324 16.158147,22.262137 c -6.089351,17.155422 13.412575,31.849158 30.598618,17.708072 l -0.07173,-12.287631 -16.016942,-0.167342 0.07173,3.418544 12.192,-0.04782 0.04782,6.358973 c -3.323802,5.76586 -14.927496,8.116178 -21.347973,-1.099671 -1.817984,-3.145735 -3.081061,-6.0195 -2.15153,-8.96471 l 2.892613,3.681507 4.087908,0.119525 -0.119524,-16.136477 c 8.635516,-3.71234 12.685573,0.02669 17.140525,3.107767 L 62.04656,35.248256 C 56.999325,29.824987 51.032414,26.548623 42.132942,30.084583 L 42.013418,14.95215 37.566917,15.023876 37.734259,42.515651 17.885163,16.68569 Z"
         id="path2"
         sodipodi:nodetypes="ccccccccccccccccccccc" /><path
         style="fill:#ffffff;fill-opacity:1;stroke:#ffffff;stroke-width:0.332711;stroke-linejoin:round;stroke-opacity:1"
         d="m 13.063369,22.649849 4.064003,5.689604 -0.19125,21.754367 -4.111811,-0.19125 z"
         id="path3" /></g></g></svg>
