<?xml version="1.0" encoding="UTF-8" standalone="no"?>
<!-- Created with Inkscape (http://www.inkscape.org/) -->

<svg
   width="80mm"
   height="80mm"
   viewBox="0 0 80 80"
   version="1.1"
   id="svg1"
   xml:space="preserve"
   inkscape:version="1.3.2 (091e20e, 2023-11-25, custom)"
   sodipodi:docname="novaLogoV7.svg"
   inkscape:export-filename="novaLogoV6.png"
   inkscape:export-xdpi="96"
   inkscape:export-ydpi="96"
   xmlns:inkscape="http://www.inkscape.org/namespaces/inkscape"
   xmlns:sodipodi="http://sodipodi.sourceforge.net/DTD/sodipodi-0.dtd"
   xmlns="http://www.w3.org/2000/svg"
   xmlns:svg="http://www.w3.org/2000/svg"><sodipodi:namedview
     id="namedview1"
     pagecolor="#ffffff"
     bordercolor="#000000"
     borderopacity="0.25"
     inkscape:showpageshadow="2"
     inkscape:pageopacity="0.0"
     inkscape:pagecheckerboard="0"
     inkscape:deskcolor="#d1d1d1"
     inkscape:document-units="mm"
     showgrid="false"
     inkscape:zoom="1.3380612"
     inkscape:cx="252.97797"
     inkscape:cy="235.04157"
     inkscape:window-width="1920"
     inkscape:window-height="986"
     inkscape:window-x="-11"
     inkscape:window-y="-11"
     inkscape:window-maximized="1"
     inkscape:current-layer="layer2" /><defs
     id="defs1" /><g
     inkscape:groupmode="layer"
     id="layer2"
     inkscape:label="logo"
     style="opacity:1"><g
       id="g10"
       transform="translate(0.41803992,0.11078228)"><ellipse
         style="display:inline;opacity:1;fill:#020873;fill-opacity:1;stroke:#020873;stroke-width:0.657951;stroke-linejoin:round;stroke-opacity:1"
         id="path1"
         cx="39.931522"
         cy="40.167175"
         rx="37.296688"
         ry="37.381214" /><path
         style="opacity:1;fill:#ffffff;fill-opacity:1;stroke:#ffffff;stroke-width:0.172;stroke-linejoin:round;stroke-opacity:1"
         d="m 29.343629,13.46068 c -3.557705,-0.189669 -7.947345,1.28654 -9.244174,7.365679 l -0.09887,35.345373 c 0.507973,8.582973 5.061324,11.977309 11.617013,12.803429 l 18.834388,0.04943 c 4.051418,-0.756725 6.756951,-3.117059 7.711717,-7.563412 l -0.09887,-16.016644 -22.739678,-0.04943 -0.197737,8.601527 14.187584,0.24717 0.08651,3.719916 c -0.165673,1.08717 -0.773824,1.849856 -1.92793,2.212175 l -13.664125,-0.02287 c -1.989575,-0.524691 -3.629895,-0.603131 -5.138411,-5.225799 l 0.05243,-30.778035 21.742124,17.757231 7.550318,0.06991 0.197219,-20.878084 c -0.728732,-4.49463 -3.305485,-7.397909 -8.77455,-7.810585 l 0.321321,16.980609"
         id="path9"
         sodipodi:nodetypes="cccccccccccccccccccc" /></g></g></svg>
