<?xml version="1.0" encoding="UTF-8" standalone="no"?>
<!-- Created with Inkscape (http://www.inkscape.org/) -->

<svg
   width="86mm"
   height="86mm"
   viewBox="0 0 86 86"
   version="1.1"
   id="svg1"
   xml:space="preserve"
   inkscape:version="1.3.2 (091e20e, 2023-11-25, custom)"
   sodipodi:docname="whatsapp.svg"
   xmlns:inkscape="http://www.inkscape.org/namespaces/inkscape"
   xmlns:sodipodi="http://sodipodi.sourceforge.net/DTD/sodipodi-0.dtd"
   xmlns="http://www.w3.org/2000/svg"
   xmlns:svg="http://www.w3.org/2000/svg"><sodipodi:namedview
     id="namedview1"
     pagecolor="#ffffff"
     bordercolor="#000000"
     borderopacity="0.25"
     inkscape:showpageshadow="2"
     inkscape:pageopacity="0.0"
     inkscape:pagecheckerboard="0"
     inkscape:deskcolor="#d1d1d1"
     inkscape:document-units="mm"
     inkscape:zoom="1.3380612"
     inkscape:cx="246.25182"
     inkscape:cy="193.93732"
     inkscape:window-width="1920"
     inkscape:window-height="986"
     inkscape:window-x="-11"
     inkscape:window-y="-11"
     inkscape:window-maximized="1"
     inkscape:current-layer="layer2" /><defs
     id="defs1" /><g
     inkscape:groupmode="layer"
     id="layer2"
     inkscape:label="whatsapp"
     style="opacity:1"><g
       id="g5"
       transform="translate(-8.3049265,-5.141145)"><circle
         style="display:inline;opacity:1;fill:#020873;fill-opacity:1;stroke:#ffffff;stroke-width:0.872;stroke-linejoin:round;stroke-opacity:1;stroke-dasharray:none"
         id="path1"
         cx="51.261692"
         cy="47.630474"
         r="39.151798" /><path
         id="path2"
         style="display:inline;opacity:1;fill:#ffffff;fill-opacity:1;stroke:#ffffff;stroke-width:0.21276;stroke-linejoin:round;stroke-opacity:1"
         d="M 51.61132,27.494963 A 20.375967,20.096329 0 0 0 31.235303,47.59141 20.375967,20.096329 0 0 0 33.687866,57.043547 L 30.935579,67.743152 41.954028,65.22961 A 20.375967,20.096329 0 0 0 51.61132,67.687858 20.375967,20.096329 0 0 0 71.987337,47.59141 20.375967,20.096329 0 0 0 51.61132,27.494963 Z" /><path
         id="path3"
         style="display:inline;opacity:1;fill:#020873;fill-opacity:1;stroke:#020873;stroke-width:0.236631;stroke-linejoin:round;stroke-opacity:1"
         d="m 51.622689,31.224967 a 16.459131,16.321886 0 0 0 -16.459461,16.322002 16.459131,16.321886 0 0 0 2.80138,9.073864 l -1.655196,6.049243 6.100919,-1.625223 A 16.459131,16.321886 0 0 0 51.622689,63.86897 16.459131,16.321886 0 0 0 68.081632,47.546969 16.459131,16.321886 0 0 0 51.622689,31.224967 Z" /><path
         style="opacity:1;fill:#ffffff;fill-opacity:1;stroke:#ffffff;stroke-width:0.172;stroke-linejoin:round;stroke-opacity:1"
         d="m 46.822463,45.66894 1.380728,-2.044877 c 0.09525,-1.553148 -0.125969,-3.208563 -1.852624,-5.120933 -0.951337,-0.809056 -2.159516,-0.830428 -3.676591,0.945272 -0.876274,1.291173 -1.100824,2.799587 -0.790945,4.486144 1.113125,4.864315 7.657142,10.653918 11.195943,11.721255 2.185044,0.867969 3.968809,0.900316 5.222354,0.439531 3.590104,-1.498952 3.168602,-3.61577 2.959865,-4.313125 -0.842122,-0.901685 -1.925861,-1.691854 -3.621046,-2.199817 -0.980783,-0.293504 -1.72917,0.110179 -2.34812,0.902172 -0.3547,0.50352 -0.727704,1.128261 -0.988681,1.581891 -3.873025,-1.386611 -5.966107,-3.626036 -7.480883,-6.397513 z"
         id="path4"
         sodipodi:nodetypes="cccccccccccc" /></g></g></svg>
