<?xml version="1.0" encoding="UTF-8" standalone="no"?>
<!-- Created with Inkscape (http://www.inkscape.org/) -->

<svg
   width="30mm"
   height="30mm"
   viewBox="0 0 30 30"
   version="1.1"
   id="svg1"
   xml:space="preserve"
   inkscape:version="1.3.2 (091e20e, 2023-11-25, custom)"
   sodipodi:docname="facebookEgoogle.svg"
   xmlns:inkscape="http://www.inkscape.org/namespaces/inkscape"
   xmlns:sodipodi="http://sodipodi.sourceforge.net/DTD/sodipodi-0.dtd"
   xmlns="http://www.w3.org/2000/svg"
   xmlns:svg="http://www.w3.org/2000/svg"><sodipodi:namedview
     id="namedview1"
     pagecolor="#ffffff"
     bordercolor="#000000"
     borderopacity="0.25"
     inkscape:showpageshadow="2"
     inkscape:pageopacity="0.0"
     inkscape:pagecheckerboard="0"
     inkscape:deskcolor="#d1d1d1"
     inkscape:document-units="mm"
     showgrid="false"
     inkscape:zoom="2.0000001"
     inkscape:cx="121.5"
     inkscape:cy="108.75"
     inkscape:window-width="1920"
     inkscape:window-height="986"
     inkscape:window-x="-11"
     inkscape:window-y="-11"
     inkscape:window-maximized="1"
     inkscape:current-layer="layer7" /><defs
     id="defs1" /><g
     inkscape:groupmode="layer"
     id="layer6"
     inkscape:label="facebook" /><g
     inkscape:groupmode="layer"
     id="layer7"
     inkscape:label="google"><g
       id="g4"
       transform="matrix(0.76215724,0,0,0.77160719,-46.586031,-7.6627132)"
       style="opacity:1"><ellipse
         style="opacity:1;fill:#020873;fill-opacity:1;stroke:#020873;stroke-width:0.190031;stroke-linejoin:bevel;stroke-opacity:1"
         id="path3"
         cx="80.808479"
         cy="29.049278"
         rx="15.78864"
         ry="15.709047" /><ellipse
         style="opacity:1;fill:#bfbfbf;fill-opacity:1;stroke:#bfbfbf;stroke-width:0.150625;stroke-linejoin:bevel;stroke-opacity:1"
         id="path3-6"
         cx="80.831825"
         cy="29.034809"
         rx="12.513788"
         ry="12.452464" /><path
         style="opacity:1;fill:#020873;fill-opacity:1;stroke:#020873;stroke-width:0.172;stroke-linejoin:bevel;stroke-opacity:1"
         d="m 84.897329,24.420918 2.818022,-2.794638 c -4.269146,-3.597361 -11.297896,-4.118966 -15.767288,2.889019 -1.662943,3.782002 -0.934195,6.487742 0.0041,9.099187 4.956012,7.782059 12.027378,6.01305 15.757344,3.113358 2.191942,-2.366052 3.434357,-5.35523 2.811066,-9.568778 l -9.487793,-0.03121 -0.02067,3.960686 5.494238,-0.01757 c -0.916501,3.292747 -3.207963,4.575047 -6.74811,4.031539 -2.497175,-0.551592 -3.715477,-2.132927 -4.525621,-4.042908 -0.564559,-1.384393 -0.482626,-2.713765 -0.0124,-4.010091 2.061186,-4.833511 7.710297,-5.259813 9.677112,-2.628594 z"
         id="path4"
         sodipodi:nodetypes="ccccccccccccc" /></g></g></svg>
