<?xml version="1.0" encoding="UTF-8" standalone="no"?>
<!-- Created with Inkscape (http://www.inkscape.org/) -->

<svg
   width="89mm"
   height="82mm"
   viewBox="0 0 89 82"
   version="1.1"
   id="svg1"
   xml:space="preserve"
   inkscape:version="1.3.2 (091e20e, 2023-11-25, custom)"
   sodipodi:docname="lupa.svg"
   xmlns:inkscape="http://www.inkscape.org/namespaces/inkscape"
   xmlns:sodipodi="http://sodipodi.sourceforge.net/DTD/sodipodi-0.dtd"
   xmlns="http://www.w3.org/2000/svg"
   xmlns:svg="http://www.w3.org/2000/svg"><sodipodi:namedview
     id="namedview1"
     pagecolor="#ffffff"
     bordercolor="#000000"
     borderopacity="0.25"
     inkscape:showpageshadow="2"
     inkscape:pageopacity="0.0"
     inkscape:pagecheckerboard="0"
     inkscape:deskcolor="#d1d1d1"
     inkscape:document-units="mm"
     showgrid="false"
     inkscape:zoom="0.94615212"
     inkscape:cx="162.23607"
     inkscape:cy="171.74828"
     inkscape:window-width="1920"
     inkscape:window-height="986"
     inkscape:window-x="-11"
     inkscape:window-y="-11"
     inkscape:window-maximized="1"
     inkscape:current-layer="layer3" /><defs
     id="defs1" /><g
     inkscape:groupmode="layer"
     id="layer3"
     inkscape:label="lupa"><g
       id="g11"
       transform="translate(-6.9910358,-5.5928286)"><ellipse
         style="display:inline;opacity:1;fill:#020873;fill-opacity:1;stroke:#020873;stroke-width:0.241986;stroke-linejoin:bevel;stroke-opacity:1"
         id="path5"
         cx="51.627693"
         cy="46.855637"
         rx="41.705883"
         ry="37.922504" /><g
         id="g10"><path
           id="path6"
           style="opacity:1;fill:#bfbfbf;fill-opacity:1;stroke:#bfbfbf;stroke-width:0.311833;stroke-linejoin:bevel;stroke-opacity:1"
           d="m 43.013395,24.306527 a 16.787106,15.304086 0 0 0 -16.787089,15.303975 16.787106,15.304086 0 0 0 16.787089,15.304492 16.787106,15.304086 0 0 0 8.69301,-2.239656 l 2.280481,2.276863 5.797579,-5.513358 -2.240174,-2.236556 A 16.787106,15.304086 0 0 0 59.800484,39.610502 16.787106,15.304086 0 0 0 43.013395,24.306527 Z" /><path
           style="opacity:1;fill:#bfbfbf;fill-opacity:1;stroke:#bfbfbf;stroke-width:0.172;stroke-linecap:butt;stroke-linejoin:round;stroke-opacity:1"
           d="m 65.750691,52.677454 -3.233354,-3.058578 -2.237131,2.027401 -0.541805,-0.576761 -4.019846,3.565429 0.524328,0.629193 -2.036139,1.865732 3.233354,3.141597 z"
           id="path8" /><path
           style="opacity:1;fill:#bfbfbf;fill-opacity:1;stroke:#bfbfbf;stroke-width:0.172;stroke-linecap:butt;stroke-linejoin:round;stroke-opacity:1"
           d="m 66.589615,53.411514 -8.2669,7.620227 7.969782,7.340589 8.319332,-7.620229 z"
           id="path9" /><path
           style="opacity:1;fill:#bfbfbf;fill-opacity:1;stroke:#bfbfbf;stroke-width:0.172;stroke-linecap:butt;stroke-linejoin:round;stroke-opacity:1"
           d="m 75.433276,61.608501 -8.144557,7.393022 c 2.063086,1.467226 5.121605,1.417723 7.602752,-0.699104 1.50861,-1.435563 2.088558,-4.423443 0.541805,-6.693918 z"
           id="path10"
           sodipodi:nodetypes="cccc" /></g><ellipse
         style="display:inline;opacity:1;fill:#020873;fill-opacity:1;stroke:#020873;stroke-width:0.236561;stroke-linejoin:bevel;stroke-opacity:1"
         id="path7"
         cx="43.254829"
         cy="39.479298"
         rx="12.177939"
         ry="11.24487" /></g></g></svg>
